# AST/ASF file generated using VICON BodyLanguage
# -----------------------------------------------
:version 1.10
:name VICON
:units
  mass 1.0
  length 0.45
  angle deg
:documentation
   .ast/.asf automatically generated from VICON data using
   VICON BodyBuilder and BodyLanguage model FoxedUp or BRILLIANT.MOD
:root
   order TX TY TZ RX RY RZ
   axis XYZ
   position 0 0 0  
   orientation 0 -0 0 
:bonedata
  begin
     id 1 
     name lhipjoint
     direction 0.432694 -0.693742 0.575759 
     length 2.19277 
     axis 0 -0 0  XYZ
  end
  begin
     id 2 
     name lfemur
     direction 0.34202 -0.939693 0  
     length 6.69022  
     axis 0 -0 20  XYZ
    dof rx ry rz
    limits (-160.0 20.0)
           (-70.0 70.0)
           (-60.0 70.0)
  end
  begin
     id 3 
     name ltibia
     direction 0.34202 -0.939693 0   
     length 6.50337   
     axis 0 -0 20   XYZ
    dof rx
    limits (-10.0 170.0)
  end
  begin
     id 4 
     name lfoot
     direction 0.158999 -0.435969 0.885805   
     length 2.70564   
     axis -90 -1.13533e-015 20   XYZ
    dof rx rz
    limits (-45.0 90.0)
           (-70.0 20.0)
  end
  begin
     id 5 
     name ltoes
     direction -0.00592919 0.00964381 0.999936   
     length 1.29929   
     axis -90 -1.13533e-015 20   XYZ
    dof rx
    limits (-90.0 20.0)
  end
  begin
     id 6 
     name rhipjoint
     direction -0.414359 -0.700339 0.581234   
     length 2.17212  
     axis 0 -0 0  XYZ 
  end
  begin
     id 7 
     name rfemur
     direction -0.34202 -0.939693 0   
     length 7.17659   
     axis 0 -0 -20   XYZ
    dof rx ry rz
    limits (-160.0 20.0)
           (-70.0 70.0)
           (-70.0 60.0)
  end
  begin
     id 8 
     name rtibia
     direction -0.34202 -0.939693 0   
     length 6.36669   
     axis 0 -0 -20   XYZ
    dof rx
    limits (-10.0 170.0)
 end
 begin
     id 9 
     name rfoot
     direction -0.137064 -0.37658 0.916188   
     length 2.22351  
     axis -90 1.13533e-015 -20   XYZ
    dof rx rz
    limits (-45.0 90.0)
           (-20.0 70.0)
  end
  begin
     id 10 
     name rtoes
     direction -0.000784077 -0.00289101 0.999996   
     length 1.09522   
     axis -90 1.13533e-015 -20   XYZ
    dof rx
    limits (-90.0 20.0)
  end
  begin
     id 11 
     name lowerback
     direction -0.0176242 0.984912 -0.172157   
     length 1.65301   
     axis 0 -0 0   XYZ
    dof rx ry rz
    limits (-20.0 45.0)
           (-30.0 30.0)
           (-30.0 30.0)
  end
  begin
     id 12 
     name upperback
     direction -0.00218128 0.998776 -0.0494072   
     length 1.67776   
     axis 0 -0 0   XYZ
    dof rx ry rz
    limits (-20.0 45.0)
           (-30.0 30.0)
           (-30.0 30.0)
  end
  begin
     id 13 
     name thorax
     direction 0.00544186 0.999658 0.0255711   
     length 1.72293   
     axis 0 -0 0   XYZ
    dof rx ry rz
    limits (-20.0 45.0)
           (-30.0 30.0)
           (-30.0 30.0)
  end
  begin
     id 14 
     name lowerneck
     direction -0.105325 0.983841 0.144785   
     length 2.14226   
     axis 0 -0 0   XYZ
    dof rx ry rz
    limits (-20.0 45.0)
           (-30.0 30.0)
           (-30.0 30.0)
  end
  begin
     id 15 
     name upperneck
     direction 0.0547957 0.988053 -0.144041   
     length 2.17508   
     axis 0 -0 0   XYZ
    dof rx ry rz
    limits (-20.0 45.0)
           (-30.0 30.0)
           (-30.0 30.0)
  end
  begin
     id 16
     name head
     direction 0.0247488 0.997534 -0.0656813  
     length 2.20048  
     axis 0 -0 0   XYZ
    dof rx ry rz
    limits (-20.0 45.0)
           (-30.0 30.0)
           (-30.0 30.0)
  end
  begin
     id 17 
     name lclavicle
     direction 0.820559 0.567247 -0.0701026  
     length 4.09615  
     axis 0 -0 0   XYZ
    dof ry rz
    limits (-20.0 10.0)
           (0.0 20.0)
  end
  begin
     id 18 
     name lhumerus
     direction 0.999977 -0.0067566 -9.96392e-005   
     length 4.59333   
     axis -180 -30 -90   XYZ
    dof rx ry rz
    limits (-60.0 90.0)
           (-90.0 90.0)
           (-90.0 90.0)
  end
  begin
     id 19
     name lradius
     direction 1 -4.48982e-011 -2.53425e-027   
     length 2.81151   
     axis -180 -30 -90   XYZ
    dof rx
    limits (-10.0 170.0)
  end
  begin
     id 20
     name lwrist
     direction 1 -4.48939e-011 -7.39254e-028   
     length 1.40576   
     axis 2.56395e-016 90 90   XYZ
    dof ry
    limits (-180.0 0.0)
 end
  begin
     id 21 
     name lhand
     direction 1 -4.48939e-011 -1.47851e-027   
     length 0.895651   
     axis 9.43423e-016 90 90   XYZ
    dof rx rz
    limits (-90.0 90.0)
           (-45.0 45.0)
  end
  begin
     id 22 
     name lfingers
     direction 1 -4.48978e-011 -2.95702e-027   
     length 0.722097   
     axis 1.88685e-015 90 90   XYZ
    dof rx
    limits (0.0 90.0)
  end
  begin
     id 23
     name lthumb
     direction 0.707107 -6.34931e-011 0.707107   
     length 1.03679   
     axis -90 45 -9.86935e-015   XYZ
    dof rx rz
    limits (-45.0 45.0)
           (-45.0 45.0)
  end
  begin
     id 24 
     name rclavicle
     direction -0.831414 0.553102 -0.0531864   
     length 4.24872  
     axis 0 -0 0   XYZ 
    dof ry rz
    limits (-10.0 20.0)
           (-20.0 0.0)
  end
  begin
     id 25 
     name rhumerus
     direction -0.999916 -0.000939607 0.0129331  
     length 4.74834   
     axis -180 30 90   XYZ
    dof rx ry rz
    limits (-90.0 60.0)
           (-90.0 90.0)
           (-90.0 90.0)
  end
  begin
     id 26 
     name rradius
     direction -1 -4.48956e-011 -1.31752e-027   
     length 2.79907   
     axis -180 30 90   XYZ
    dof rx
    limits (-10.0 170.0)
  end
  begin
     id 27 
     name rwrist
     direction -1 -4.4897e-011 -7.39254e-028   
     length 1.39954   
     axis 2.56395e-016 -90 -90   XYZ
    dof ry
    limits (-180.0 0.0)
  end
  begin
     id 28
     name rhand
     direction -0.999997 -0.00250697 0.000800838   
     length 0.953304   
     axis 9.43423e-016 -90 -90   XYZ
    dof rx rz
    limits (-90.0 90.0)
           (-45.0 45.0)
  end
  begin
     id 29
     name rfingers
     direction -1 -4.48954e-011 -2.95702e-027   
     length 0.763342   
     axis 1.88685e-015 -90 -90   XYZ
    dof rx
    limits (0.0 90.0)
  end
  begin
     id 30
     name rthumb
     direction -0.709701 -0.00217037 0.7045   
     length 1.10115   
     axis -90 -45 9.86935e-015   XYZ
    dof rx rz
    limits (-45.0 45.0)
           (-45.0 45.0)
  end
:hierarchy
  begin
    root lhipjoint rhipjoint lowerback
    lhipjoint lfemur
    lfemur ltibia
    ltibia lfoot
    lfoot ltoes
    rhipjoint rfemur
    rfemur rtibia
    rtibia rfoot
    rfoot rtoes
    lowerback upperback
    upperback thorax
    thorax lowerneck lclavicle rclavicle
    lowerneck upperneck
    upperneck head
    lclavicle lhumerus
    lhumerus lradius
    lradius lwrist
    lwrist lhand lthumb
    lhand lfingers
    rclavicle rhumerus
    rhumerus rradius
    rradius rwrist
    rwrist rhand rthumb
    rhand rfingers
  end

#!OML:ASF G:\ViconDB\ViconDB\414\test\team2\shane.ASF
:FULLY-SPECIFIED
:DEGREES
33
root 1.30382 16.6512 -24.0994 -4.83447 -8.86166 -3.5555
lowerback 8.78683 0.461101 2.12841
upperback 4.11976 0.79971 2.38235
thorax -0.66422 0.398843 1.18819
lowerneck -17.2779 -1.13013 -6.28459
upperneck 21.5815 -1.78385 7.9357
head 9.82175 -0.435319 3.6064
rclavicle 5.71506e-015 -1.59028e-014
rhumerus -36.5219 -0.423928 -88.9883
rradius 22.2045
rwrist 42.8277
rhand -29.0417 -15.7367
rfingers 7.12502
rthumb -2.392 -45.703
lclavicle 5.71506e-015 -1.59028e-014
lhumerus -32.217 -17.514 96.0234
lradius 29.6163
lwrist -16.6153
lhand -39.8192 6.4155
lfingers 7.12502
lthumb -12.7934 36.0035
rfemur 9.57292 -18.9555 18.0774
rtibia 23.4444
rfoot -29.6872 12.4924
rtoes -6.0949
lfemur -6.8205 9.65606 -3.00226
ltibia 48.8217
lfoot -24.8707 -5.91592
ltoes -11.8141
34
root 1.28399 16.6581 -24.0457 -4.76241 -8.91988 -3.62553
lowerback 8.78895 0.575251 2.33005
upperback 4.12749 0.966299 2.3471
thorax -0.653999 0.484903 1.02347
lowerneck -17.3108 -1.16262 -6.45547
upperneck 21.6164 -1.85072 8.21823
head 9.84979 -0.447326 3.72913
rclavicle -5.1684e-015 1.59028e-015
rhumerus -35.8908 -0.820081 -89.2222
rradius 22.0522
rwrist 43.6239
rhand -29.3135 -15.8161
rfingers 7.12502
rthumb -2.65451 -45.7793
lclavicle -5.1684e-015 1.59028e-015
lhumerus -32.5476 -17.6911 95.9723
lradius 29.4304
lwrist -16.6175
lhand -39.9142 6.61672
lfingers 7.12502
lthumb -12.885 36.199
rfemur 10.0364 -18.9723 18.1257
rtibia 22.7853
rfoot -29.604 12.4904
rtoes -6.38149
lfemur -7.72855 9.70673 -3.20679
ltibia 48.7464
lfoot -25.1122 -6.42359
ltoes -11.9901
35
root 1.26328 16.6635 -23.9905 -4.74663 -8.92166 -3.4849
lowerback 8.82793 0.682976 2.31124
upperback 4.13104 1.10817 2.26206
thorax -0.670721 0.556302 0.932799
lowerneck -17.279 -1.20777 -6.43186
upperneck 21.5877 -1.91746 8.20653
head 9.83915 -0.47801 3.71097
rclavicle 1.62506e-014 -2.38542e-015
rhumerus -35.0913 -1.43076 -89.4901
rradius 21.9891
rwrist 43.0977
rhand -29.1112 -15.1672
rfingers 7.12502
rthumb -2.45908 -45.1328
lclavicle 1.62506e-014 -2.38542e-015
lhumerus -32.8644 -17.5051 95.8586
lradius 29.1921
lwrist -16.7631
lhand -39.8265 6.57375
lfingers 7.12502
lthumb -12.8005 36.1613
rfemur 10.5383 -18.9648 17.9531
rtibia 22.0977
rfoot -29.3992 12.5274
rtoes -6.40609
lfemur -8.54477 9.60159 -3.6395
ltibia 48.455
lfoot -25.3703 -7.05335
ltoes -11.8305
36
root 1.24378 16.6699 -23.9309 -4.72618 -9.02865 -3.384
lowerback 8.88287 0.865553 2.41077
upperback 4.14777 1.35763 2.10169
thorax -0.677205 0.683583 0.687957
lowerneck -17.3168 -1.24345 -6.14569
upperneck 21.5565 -2.02303 8.12027
head 9.84113 -0.511929 3.61659
rclavicle 1.05853e-014 1.31198e-014
rhumerus -34.5064 -1.1022 -90.3295
rradius 22.1449
rwrist 42.9706
rhand -29.3956 -15.6287
rfingers 7.12502
rthumb -2.73377 -45.5909
lclavicle 1.05853e-014 1.31198e-014
lhumerus -33.1667 -17.6272 95.689
lradius 28.9265
lwrist -16.7922
lhand -39.8202 6.53108
lfingers 7.12502
lthumb -12.7944 36.119
rfemur 11.0804 -18.8689 17.8271
rtibia 21.328
rfoot -29.1565 12.5348
rtoes -6.51152
lfemur -9.30164 9.53776 -4.07305
ltibia 47.937
lfoot -25.6417 -7.47122
ltoes -11.7883
37
root 1.22267 16.6718 -23.8752 -4.6363 -8.96975 -3.40812
lowerback 8.90984 0.957417 2.50158
upperback 4.14552 1.48737 2.05815
thorax -0.690024 0.749809 0.579731
lowerneck -17.2762 -1.25778 -5.96186
upperneck 21.4399 -2.04769 7.94999
head 9.79102 -0.528352 3.51768
rclavicle 3.4191e-014 4.77083e-015
rhumerus -33.7262 -1.12784 -90.9058
rradius 22.2561
rwrist 42.2616
rhand -29.2479 -15.5394
rfingers 7.12502
rthumb -2.5911 -45.5034
lclavicle 3.4191e-014 4.77083e-015
lhumerus -33.4481 -17.3779 95.4567
lradius 28.5229
lwrist -17.1893
lhand -39.6745 6.63173
lfingers 7.12502
lthumb -12.654 36.2284
rfemur 11.5576 -18.7832 17.9097
rtibia 20.5522
rfoot -28.8337 12.4759
rtoes -6.15109
lfemur -10.1656 9.46191 -4.36754
ltibia 47.2609
lfoot -25.9171 -7.94155
ltoes -12.6522
38
root 1.20261 16.6793 -23.8184 -4.64287 -8.91542 -3.21699
lowerback 9.08387 1.06053 2.41369
upperback 4.14151 1.62247 1.95088
thorax -0.788298 0.816386 0.502171
lowerneck -17.3609 -1.28351 -5.98731
upperneck 21.4306 -2.08565 8.00888
head 9.80774 -0.539447 3.53838
rclavicle -3.97072e-014 -1.82882e-014
rhumerus -33.1677 -0.291447 -91.7106
rradius 22.5382
rwrist 42.302
rhand -29.4527 -15.7935
rfingers 7.12502
rthumb -2.7889 -45.755
lclavicle -3.97072e-014 -1.82882e-014
lhumerus -33.7793 -17.2384 95.2501
lradius 28.1532
lwrist -17.416
lhand -39.3687 6.59009
lfingers 7.12502
lthumb -12.3592 36.2048
rfemur 12.1178 -18.4708 17.8106
rtibia 19.7446
rfoot -28.5621 12.0306
rtoes -6.64464
lfemur -10.965 9.34528 -4.90827
ltibia 46.4057
lfoot -26.0277 -8.33312
ltoes -12.5711
